<mxfile host="app.diagrams.net" modified="2023-08-30T12:37:40.180Z" agent="Mozilla/5.0 (Macintosh; Intel Mac OS X 10_15_7) AppleWebKit/537.36 (KHTML, like Gecko) Chrome/116.0.0.0 Safari/537.36" etag="D_QpPOCmuwvKzKHOS2t0" version="21.7.0" type="github">
  <diagram name="increase limit" id="IxJyJ5uiLZX2AOsun7UW">
    <mxGraphModel dx="2284" dy="727" grid="1" gridSize="10" guides="1" tooltips="1" connect="1" arrows="0" fold="1" page="1" pageScale="1" pageWidth="850" pageHeight="1100" math="0" shadow="0">
      <root>
        <mxCell id="0" />
        <mxCell id="1" parent="0" />
        <mxCell id="Cu_4Ha-0ScHcUDtXiqEP-11" value="" style="rounded=0;whiteSpace=wrap;html=1;align=left;" parent="1" vertex="1">
          <mxGeometry x="-330" y="100" width="780" height="220" as="geometry" />
        </mxCell>
        <mxCell id="Cu_4Ha-0ScHcUDtXiqEP-48" value="3. update limit" style="edgeStyle=orthogonalEdgeStyle;rounded=0;orthogonalLoop=1;jettySize=auto;html=1;" parent="1" source="Cu_4Ha-0ScHcUDtXiqEP-1" target="Cu_4Ha-0ScHcUDtXiqEP-47" edge="1">
          <mxGeometry relative="1" as="geometry" />
        </mxCell>
        <mxCell id="Cu_4Ha-0ScHcUDtXiqEP-1" value="update limit service" style="rounded=0;whiteSpace=wrap;html=1;" parent="1" vertex="1">
          <mxGeometry x="-100" y="250" width="120" height="40" as="geometry" />
        </mxCell>
        <mxCell id="Cu_4Ha-0ScHcUDtXiqEP-4" value="1. query task" style="edgeStyle=orthogonalEdgeStyle;rounded=0;orthogonalLoop=1;jettySize=auto;html=1;" parent="1" source="Cu_4Ha-0ScHcUDtXiqEP-2" target="Cu_4Ha-0ScHcUDtXiqEP-3" edge="1">
          <mxGeometry relative="1" as="geometry" />
        </mxCell>
        <mxCell id="Cu_4Ha-0ScHcUDtXiqEP-7" value="2. update limit" style="edgeStyle=orthogonalEdgeStyle;rounded=0;orthogonalLoop=1;jettySize=auto;html=1;" parent="1" source="Cu_4Ha-0ScHcUDtXiqEP-2" target="Cu_4Ha-0ScHcUDtXiqEP-1" edge="1">
          <mxGeometry relative="1" as="geometry" />
        </mxCell>
        <mxCell id="Cu_4Ha-0ScHcUDtXiqEP-2" value="limit migration sceduler" style="rounded=0;whiteSpace=wrap;html=1;" parent="1" vertex="1">
          <mxGeometry x="-100" y="170" width="120" height="40" as="geometry" />
        </mxCell>
        <mxCell id="Cu_4Ha-0ScHcUDtXiqEP-3" value="user_limit_migration_task" style="shape=cylinder3;whiteSpace=wrap;html=1;boundedLbl=1;backgroundOutline=1;size=15;" parent="1" vertex="1">
          <mxGeometry x="-280" y="150" width="60" height="80" as="geometry" />
        </mxCell>
        <mxCell id="Cu_4Ha-0ScHcUDtXiqEP-10" value="LMS" style="text;html=1;align=center;verticalAlign=middle;resizable=0;points=[];autosize=1;strokeColor=none;fillColor=none;" parent="1" vertex="1">
          <mxGeometry x="-85" y="100" width="50" height="30" as="geometry" />
        </mxCell>
        <mxCell id="Cu_4Ha-0ScHcUDtXiqEP-12" value="CASE 1" style="text;html=1;align=center;verticalAlign=middle;resizable=0;points=[];autosize=1;strokeColor=none;fillColor=none;" parent="1" vertex="1">
          <mxGeometry x="-330" y="100" width="70" height="30" as="geometry" />
        </mxCell>
        <mxCell id="Cu_4Ha-0ScHcUDtXiqEP-13" value="" style="rounded=0;whiteSpace=wrap;html=1;align=left;" parent="1" vertex="1">
          <mxGeometry x="-330" y="330" width="780" height="430" as="geometry" />
        </mxCell>
        <mxCell id="Cu_4Ha-0ScHcUDtXiqEP-34" value="3. publish event upgrade limit" style="edgeStyle=orthogonalEdgeStyle;rounded=0;orthogonalLoop=1;jettySize=auto;html=1;" parent="1" source="Cu_4Ha-0ScHcUDtXiqEP-14" target="Cu_4Ha-0ScHcUDtXiqEP-33" edge="1">
          <mxGeometry relative="1" as="geometry" />
        </mxCell>
        <mxCell id="Cu_4Ha-0ScHcUDtXiqEP-14" value="calculate limit service" style="rounded=0;whiteSpace=wrap;html=1;" parent="1" vertex="1">
          <mxGeometry x="-290" y="420" width="120" height="40" as="geometry" />
        </mxCell>
        <mxCell id="Cu_4Ha-0ScHcUDtXiqEP-20" value="CASE 2" style="text;html=1;align=center;verticalAlign=middle;resizable=0;points=[];autosize=1;strokeColor=none;fillColor=none;" parent="1" vertex="1">
          <mxGeometry x="-330" y="330" width="70" height="30" as="geometry" />
        </mxCell>
        <mxCell id="Cu_4Ha-0ScHcUDtXiqEP-21" value="LMS" style="text;html=1;align=center;verticalAlign=middle;resizable=0;points=[];autosize=1;strokeColor=none;fillColor=none;" parent="1" vertex="1">
          <mxGeometry x="-85" y="340" width="50" height="30" as="geometry" />
        </mxCell>
        <mxCell id="Cu_4Ha-0ScHcUDtXiqEP-22" value="Lender" style="text;html=1;align=center;verticalAlign=middle;resizable=0;points=[];autosize=1;strokeColor=none;fillColor=none;" parent="1" vertex="1">
          <mxGeometry x="320" y="340" width="60" height="30" as="geometry" />
        </mxCell>
        <mxCell id="Cu_4Ha-0ScHcUDtXiqEP-25" value="1. call update fdc flag after registration&lt;br&gt;and fdc consult" style="edgeStyle=orthogonalEdgeStyle;rounded=0;orthogonalLoop=1;jettySize=auto;html=1;" parent="1" source="Cu_4Ha-0ScHcUDtXiqEP-23" target="Cu_4Ha-0ScHcUDtXiqEP-24" edge="1">
          <mxGeometry relative="1" as="geometry" />
        </mxCell>
        <mxCell id="Cu_4Ha-0ScHcUDtXiqEP-23" value="consult fdc" style="rounded=0;whiteSpace=wrap;html=1;" parent="1" vertex="1">
          <mxGeometry x="305" y="420" width="120" height="40" as="geometry" />
        </mxCell>
        <mxCell id="Cu_4Ha-0ScHcUDtXiqEP-26" style="edgeStyle=orthogonalEdgeStyle;rounded=0;orthogonalLoop=1;jettySize=auto;html=1;" parent="1" source="Cu_4Ha-0ScHcUDtXiqEP-24" target="Cu_4Ha-0ScHcUDtXiqEP-14" edge="1">
          <mxGeometry relative="1" as="geometry" />
        </mxCell>
        <mxCell id="Cu_4Ha-0ScHcUDtXiqEP-35" value="2. calculate limit" style="edgeLabel;html=1;align=center;verticalAlign=middle;resizable=0;points=[];" parent="Cu_4Ha-0ScHcUDtXiqEP-26" vertex="1" connectable="0">
          <mxGeometry x="-0.1579" relative="1" as="geometry">
            <mxPoint as="offset" />
          </mxGeometry>
        </mxCell>
        <mxCell id="Cu_4Ha-0ScHcUDtXiqEP-24" value="update account info service (fdc flag)" style="rounded=0;whiteSpace=wrap;html=1;" parent="1" vertex="1">
          <mxGeometry x="-35" y="420" width="120" height="40" as="geometry" />
        </mxCell>
        <mxCell id="Cu_4Ha-0ScHcUDtXiqEP-37" value="" style="edgeStyle=orthogonalEdgeStyle;rounded=0;orthogonalLoop=1;jettySize=auto;html=1;" parent="1" source="Cu_4Ha-0ScHcUDtXiqEP-33" target="Cu_4Ha-0ScHcUDtXiqEP-36" edge="1">
          <mxGeometry relative="1" as="geometry" />
        </mxCell>
        <mxCell id="Cu_4Ha-0ScHcUDtXiqEP-40" value="4. listen event upgrade limit" style="edgeLabel;html=1;align=center;verticalAlign=middle;resizable=0;points=[];" parent="Cu_4Ha-0ScHcUDtXiqEP-37" vertex="1" connectable="0">
          <mxGeometry x="-0.15" y="1" relative="1" as="geometry">
            <mxPoint as="offset" />
          </mxGeometry>
        </mxCell>
        <mxCell id="Cu_4Ha-0ScHcUDtXiqEP-33" value="message broker" style="shape=cylinder3;whiteSpace=wrap;html=1;boundedLbl=1;backgroundOutline=1;size=15;" parent="1" vertex="1">
          <mxGeometry x="-260" y="510" width="60" height="80" as="geometry" />
        </mxCell>
        <mxCell id="Cu_4Ha-0ScHcUDtXiqEP-39" value="5. update limit" style="edgeStyle=orthogonalEdgeStyle;rounded=0;orthogonalLoop=1;jettySize=auto;html=1;" parent="1" source="Cu_4Ha-0ScHcUDtXiqEP-36" target="Cu_4Ha-0ScHcUDtXiqEP-38" edge="1">
          <mxGeometry relative="1" as="geometry" />
        </mxCell>
        <mxCell id="Cu_4Ha-0ScHcUDtXiqEP-36" value="update limit handler" style="rounded=0;whiteSpace=wrap;html=1;" parent="1" vertex="1">
          <mxGeometry x="-290" y="660" width="120" height="40" as="geometry" />
        </mxCell>
        <mxCell id="Cu_4Ha-0ScHcUDtXiqEP-43" value="6. update limit" style="edgeStyle=orthogonalEdgeStyle;rounded=0;orthogonalLoop=1;jettySize=auto;html=1;" parent="1" source="Cu_4Ha-0ScHcUDtXiqEP-38" target="Cu_4Ha-0ScHcUDtXiqEP-44" edge="1">
          <mxGeometry relative="1" as="geometry">
            <mxPoint x="160" y="680" as="targetPoint" />
          </mxGeometry>
        </mxCell>
        <mxCell id="Cu_4Ha-0ScHcUDtXiqEP-38" value="update limit service" style="rounded=0;whiteSpace=wrap;html=1;" parent="1" vertex="1">
          <mxGeometry x="-35" y="660" width="120" height="40" as="geometry" />
        </mxCell>
        <mxCell id="Cu_4Ha-0ScHcUDtXiqEP-44" value="update account info service (limit)" style="rounded=0;whiteSpace=wrap;html=1;" parent="1" vertex="1">
          <mxGeometry x="305" y="660" width="120" height="40" as="geometry" />
        </mxCell>
        <mxCell id="Cu_4Ha-0ScHcUDtXiqEP-45" value="" style="endArrow=none;dashed=1;html=1;rounded=0;entryX=0.704;entryY=0.002;entryDx=0;entryDy=0;entryPerimeter=0;" parent="1" target="Cu_4Ha-0ScHcUDtXiqEP-13" edge="1">
          <mxGeometry width="50" height="50" relative="1" as="geometry">
            <mxPoint x="220" y="760" as="sourcePoint" />
            <mxPoint x="280" y="400" as="targetPoint" />
          </mxGeometry>
        </mxCell>
        <mxCell id="Cu_4Ha-0ScHcUDtXiqEP-47" value="update account info service (limit)" style="rounded=0;whiteSpace=wrap;html=1;" parent="1" vertex="1">
          <mxGeometry x="280" y="250" width="120" height="40" as="geometry" />
        </mxCell>
        <mxCell id="Cu_4Ha-0ScHcUDtXiqEP-49" value="" style="endArrow=none;dashed=1;html=1;rounded=0;entryX=0.697;entryY=-0.009;entryDx=0;entryDy=0;entryPerimeter=0;exitX=0.699;exitY=1.018;exitDx=0;exitDy=0;exitPerimeter=0;" parent="1" source="Cu_4Ha-0ScHcUDtXiqEP-11" target="Cu_4Ha-0ScHcUDtXiqEP-11" edge="1">
          <mxGeometry width="50" height="50" relative="1" as="geometry">
            <mxPoint x="230" y="770" as="sourcePoint" />
            <mxPoint x="229" y="341" as="targetPoint" />
          </mxGeometry>
        </mxCell>
        <mxCell id="Cu_4Ha-0ScHcUDtXiqEP-50" value="Lender" style="text;html=1;align=center;verticalAlign=middle;resizable=0;points=[];autosize=1;strokeColor=none;fillColor=none;" parent="1" vertex="1">
          <mxGeometry x="290" y="100" width="60" height="30" as="geometry" />
        </mxCell>
        <mxCell id="Nr63nWOwULZAp1HPPZ4L-1" value="" style="rounded=0;whiteSpace=wrap;html=1;fillColor=#dae8fc;strokeColor=#6c8ebf;" vertex="1" parent="1">
          <mxGeometry x="640" y="90" width="200" height="870" as="geometry" />
        </mxCell>
        <mxCell id="Nr63nWOwULZAp1HPPZ4L-2" value="" style="rounded=0;whiteSpace=wrap;html=1;fillColor=#d5e8d4;strokeColor=#82b366;" vertex="1" parent="1">
          <mxGeometry x="880" y="90" width="200" height="870" as="geometry" />
        </mxCell>
        <mxCell id="Nr63nWOwULZAp1HPPZ4L-3" value="" style="rounded=0;whiteSpace=wrap;html=1;fillColor=#fff2cc;strokeColor=#d6b656;" vertex="1" parent="1">
          <mxGeometry x="1120" y="90" width="200" height="870" as="geometry" />
        </mxCell>
        <mxCell id="Nr63nWOwULZAp1HPPZ4L-30" style="edgeStyle=orthogonalEdgeStyle;rounded=0;orthogonalLoop=1;jettySize=auto;html=1;exitX=1;exitY=0.5;exitDx=0;exitDy=0;entryX=0;entryY=0.5;entryDx=0;entryDy=0;" edge="1" parent="1" source="Nr63nWOwULZAp1HPPZ4L-4" target="Nr63nWOwULZAp1HPPZ4L-9">
          <mxGeometry relative="1" as="geometry" />
        </mxCell>
        <mxCell id="Nr63nWOwULZAp1HPPZ4L-4" value="update limit batching (ETL)" style="rounded=0;whiteSpace=wrap;html=1;" vertex="1" parent="1">
          <mxGeometry x="680" y="250" width="120" height="60" as="geometry" />
        </mxCell>
        <mxCell id="Nr63nWOwULZAp1HPPZ4L-6" value="DANA" style="text;html=1;align=center;verticalAlign=middle;resizable=0;points=[];autosize=1;strokeColor=none;fillColor=none;" vertex="1" parent="1">
          <mxGeometry x="710" y="110" width="60" height="30" as="geometry" />
        </mxCell>
        <mxCell id="Nr63nWOwULZAp1HPPZ4L-7" value="LMS" style="text;html=1;align=center;verticalAlign=middle;resizable=0;points=[];autosize=1;strokeColor=none;fillColor=none;" vertex="1" parent="1">
          <mxGeometry x="955" y="110" width="50" height="30" as="geometry" />
        </mxCell>
        <mxCell id="Nr63nWOwULZAp1HPPZ4L-8" value="LENDER" style="text;html=1;align=center;verticalAlign=middle;resizable=0;points=[];autosize=1;strokeColor=none;fillColor=none;" vertex="1" parent="1">
          <mxGeometry x="1185" y="110" width="70" height="30" as="geometry" />
        </mxCell>
        <mxCell id="Nr63nWOwULZAp1HPPZ4L-14" style="edgeStyle=orthogonalEdgeStyle;rounded=0;orthogonalLoop=1;jettySize=auto;html=1;exitX=0.5;exitY=1;exitDx=0;exitDy=0;" edge="1" parent="1" source="Nr63nWOwULZAp1HPPZ4L-9" target="Nr63nWOwULZAp1HPPZ4L-13">
          <mxGeometry relative="1" as="geometry" />
        </mxCell>
        <mxCell id="Nr63nWOwULZAp1HPPZ4L-9" value="insert to update_info_task" style="rounded=0;whiteSpace=wrap;html=1;" vertex="1" parent="1">
          <mxGeometry x="920" y="250" width="120" height="60" as="geometry" />
        </mxCell>
        <mxCell id="Nr63nWOwULZAp1HPPZ4L-29" style="edgeStyle=orthogonalEdgeStyle;rounded=0;orthogonalLoop=1;jettySize=auto;html=1;exitX=0;exitY=0.5;exitDx=0;exitDy=0;" edge="1" parent="1" source="Nr63nWOwULZAp1HPPZ4L-11" target="Nr63nWOwULZAp1HPPZ4L-17">
          <mxGeometry relative="1" as="geometry" />
        </mxCell>
        <mxCell id="Nr63nWOwULZAp1HPPZ4L-11" value="notify account info (FDC flag)" style="rounded=0;whiteSpace=wrap;html=1;" vertex="1" parent="1">
          <mxGeometry x="1160" y="160" width="120" height="60" as="geometry" />
        </mxCell>
        <mxCell id="Nr63nWOwULZAp1HPPZ4L-16" style="edgeStyle=orthogonalEdgeStyle;rounded=0;orthogonalLoop=1;jettySize=auto;html=1;exitX=0.5;exitY=1;exitDx=0;exitDy=0;" edge="1" parent="1" source="Nr63nWOwULZAp1HPPZ4L-13" target="Nr63nWOwULZAp1HPPZ4L-15">
          <mxGeometry relative="1" as="geometry" />
        </mxCell>
        <mxCell id="Nr63nWOwULZAp1HPPZ4L-13" value="process task by scheduler" style="rounded=0;whiteSpace=wrap;html=1;" vertex="1" parent="1">
          <mxGeometry x="920" y="350" width="120" height="60" as="geometry" />
        </mxCell>
        <mxCell id="Nr63nWOwULZAp1HPPZ4L-22" style="edgeStyle=orthogonalEdgeStyle;rounded=0;orthogonalLoop=1;jettySize=auto;html=1;exitX=0.5;exitY=1;exitDx=0;exitDy=0;entryX=0.5;entryY=0;entryDx=0;entryDy=0;" edge="1" parent="1" source="Nr63nWOwULZAp1HPPZ4L-15" target="Nr63nWOwULZAp1HPPZ4L-20">
          <mxGeometry relative="1" as="geometry" />
        </mxCell>
        <mxCell id="Nr63nWOwULZAp1HPPZ4L-15" value="execute logic based on updateKey" style="rounded=0;whiteSpace=wrap;html=1;" vertex="1" parent="1">
          <mxGeometry x="920" y="460" width="120" height="60" as="geometry" />
        </mxCell>
        <mxCell id="Nr63nWOwULZAp1HPPZ4L-32" style="edgeStyle=orthogonalEdgeStyle;rounded=0;orthogonalLoop=1;jettySize=auto;html=1;exitX=0.5;exitY=1;exitDx=0;exitDy=0;entryX=1;entryY=0.5;entryDx=0;entryDy=0;" edge="1" parent="1" source="Nr63nWOwULZAp1HPPZ4L-17" target="Nr63nWOwULZAp1HPPZ4L-15">
          <mxGeometry relative="1" as="geometry">
            <mxPoint x="1040" y="510" as="targetPoint" />
            <Array as="points">
              <mxPoint x="980" y="240" />
              <mxPoint x="1060" y="240" />
              <mxPoint x="1060" y="490" />
            </Array>
          </mxGeometry>
        </mxCell>
        <mxCell id="Nr63nWOwULZAp1HPPZ4L-17" value="controller update account info" style="rounded=0;whiteSpace=wrap;html=1;" vertex="1" parent="1">
          <mxGeometry x="920" y="160" width="120" height="60" as="geometry" />
        </mxCell>
        <mxCell id="Nr63nWOwULZAp1HPPZ4L-28" style="edgeStyle=orthogonalEdgeStyle;rounded=0;orthogonalLoop=1;jettySize=auto;html=1;exitX=1;exitY=0.5;exitDx=0;exitDy=0;" edge="1" parent="1" source="Nr63nWOwULZAp1HPPZ4L-18" target="Nr63nWOwULZAp1HPPZ4L-17">
          <mxGeometry relative="1" as="geometry" />
        </mxCell>
        <mxCell id="Nr63nWOwULZAp1HPPZ4L-18" value="update account info (migration)" style="rounded=0;whiteSpace=wrap;html=1;" vertex="1" parent="1">
          <mxGeometry x="680" y="160" width="120" height="60" as="geometry" />
        </mxCell>
        <mxCell id="Nr63nWOwULZAp1HPPZ4L-23" style="edgeStyle=orthogonalEdgeStyle;rounded=0;orthogonalLoop=1;jettySize=auto;html=1;exitX=0.5;exitY=1;exitDx=0;exitDy=0;" edge="1" parent="1" source="Nr63nWOwULZAp1HPPZ4L-20" target="Nr63nWOwULZAp1HPPZ4L-21">
          <mxGeometry relative="1" as="geometry" />
        </mxCell>
        <mxCell id="Nr63nWOwULZAp1HPPZ4L-20" value="is update limit" style="rhombus;whiteSpace=wrap;html=1;" vertex="1" parent="1">
          <mxGeometry x="940" y="570" width="80" height="50" as="geometry" />
        </mxCell>
        <mxCell id="Nr63nWOwULZAp1HPPZ4L-25" style="edgeStyle=orthogonalEdgeStyle;rounded=0;orthogonalLoop=1;jettySize=auto;html=1;exitX=1;exitY=0.5;exitDx=0;exitDy=0;" edge="1" parent="1" source="Nr63nWOwULZAp1HPPZ4L-21" target="Nr63nWOwULZAp1HPPZ4L-24">
          <mxGeometry relative="1" as="geometry" />
        </mxCell>
        <mxCell id="Nr63nWOwULZAp1HPPZ4L-21" value="notify account info (limit)" style="rounded=0;whiteSpace=wrap;html=1;" vertex="1" parent="1">
          <mxGeometry x="920" y="650" width="120" height="60" as="geometry" />
        </mxCell>
        <mxCell id="Nr63nWOwULZAp1HPPZ4L-24" value="update account info (limit)" style="rounded=0;whiteSpace=wrap;html=1;" vertex="1" parent="1">
          <mxGeometry x="1160" y="650" width="120" height="60" as="geometry" />
        </mxCell>
      </root>
    </mxGraphModel>
  </diagram>
</mxfile>
